<svg width="1100" height="1400" viewBox="0 0 1100 1400" fill="none" xmlns="http://www.w3.org/2000/svg">
  <defs>
    <linearGradient id="bg" x1="120" y1="60" x2="980" y2="1320" gradientUnits="userSpaceOnUse">
      <stop stop-color="#10161D"/>
      <stop offset="0.52" stop-color="#090C10"/>
      <stop offset="1" stop-color="#121A23"/>
    </linearGradient>
    <radialGradient id="haloTop" cx="0" cy="0" r="1" gradientUnits="userSpaceOnUse" gradientTransform="translate(548 206) rotate(90) scale(282 372)">
      <stop stop-color="#E7EEF7" stop-opacity="0.34"/>
      <stop offset="0.4" stop-color="#BBC7D8" stop-opacity="0.2"/>
      <stop offset="1" stop-color="#BBC7D8" stop-opacity="0"/>
    </radialGradient>
    <radialGradient id="haloBottom" cx="0" cy="0" r="1" gradientUnits="userSpaceOnUse" gradientTransform="translate(548 1126) rotate(90) scale(190 324)">
      <stop stop-color="#CED8E5" stop-opacity="0.24"/>
      <stop offset="0.55" stop-color="#7F8FA5" stop-opacity="0.14"/>
      <stop offset="1" stop-color="#7F8FA5" stop-opacity="0"/>
    </radialGradient>
    <linearGradient id="frameStroke" x1="138" y1="124" x2="914" y2="1288" gradientUnits="userSpaceOnUse">
      <stop stop-color="#D9E2ED" stop-opacity="0.62"/>
      <stop offset="0.52" stop-color="#93A3B8" stop-opacity="0.24"/>
      <stop offset="1" stop-color="#F5FAFF" stop-opacity="0.44"/>
    </linearGradient>
    <linearGradient id="panelFill" x1="220" y1="210" x2="830" y2="1142" gradientUnits="userSpaceOnUse">
      <stop stop-color="#18212B"/>
      <stop offset="0.5" stop-color="#0D131A"/>
      <stop offset="1" stop-color="#161D26"/>
    </linearGradient>
    <linearGradient id="metal" x1="246" y1="354" x2="778" y2="958" gradientUnits="userSpaceOnUse">
      <stop stop-color="#F4F8FD"/>
      <stop offset="0.2" stop-color="#CCD6E2"/>
      <stop offset="0.54" stop-color="#8A99AE"/>
      <stop offset="0.8" stop-color="#DDE5EF"/>
      <stop offset="1" stop-color="#A4B2C5"/>
    </linearGradient>
    <linearGradient id="boxShadow" x1="224" y1="302" x2="880" y2="1150" gradientUnits="userSpaceOnUse">
      <stop stop-color="#06080B" stop-opacity="0"/>
      <stop offset="1" stop-color="#06080B" stop-opacity="0.42"/>
    </linearGradient>
    <linearGradient id="vialMetal" x1="0" y1="0" x2="1" y2="1">
      <stop stop-color="#FAFDFF"/>
      <stop offset="0.24" stop-color="#C3CEDB"/>
      <stop offset="0.58" stop-color="#77879E"/>
      <stop offset="0.85" stop-color="#E6EDF6"/>
      <stop offset="1" stop-color="#9CAABC"/>
    </linearGradient>
    <linearGradient id="capMetal" x1="0" y1="0" x2="1" y2="1">
      <stop stop-color="#EEF4FB"/>
      <stop offset="1" stop-color="#6E7D92"/>
    </linearGradient>
    <pattern id="grid" width="64" height="64" patternUnits="userSpaceOnUse">
      <path d="M64 0H0V64" stroke="#EEF4FB" stroke-opacity="0.055"/>
    </pattern>
  </defs>

  <rect width="1100" height="1400" rx="48" fill="url(#bg)"/>
  <rect width="1100" height="1400" rx="48" fill="url(#grid)"/>
  <rect x="72" y="72" width="956" height="1256" rx="58" fill="url(#haloTop)"/>
  <rect x="72" y="72" width="956" height="1256" rx="58" fill="url(#haloBottom)"/>

  <rect x="118" y="118" width="864" height="1164" rx="54" fill="#0A0E13" fill-opacity="0.48" stroke="url(#frameStroke)" stroke-width="2"/>
  <rect x="164" y="166" width="772" height="1068" rx="40" fill="url(#panelFill)" stroke="#F5FAFF" stroke-opacity="0.08"/>

  <circle cx="548" cy="256" r="170" fill="#DDE5EF" fill-opacity="0.08"/>
  <circle cx="548" cy="256" r="132" stroke="#EAF1F9" stroke-opacity="0.22"/>
  <circle cx="548" cy="256" r="98" stroke="#EAF1F9" stroke-opacity="0.12"/>

  <rect x="248" y="314" width="604" height="648" rx="38" fill="#0E141B" stroke="#D7E0EB" stroke-opacity="0.14"/>
  <rect x="278" y="344" width="544" height="594" rx="30" fill="url(#metal)"/>
  <rect x="278" y="344" width="544" height="594" rx="30" fill="url(#boxShadow)"/>

  <g opacity="0.9">
    <text x="326" y="492" fill="#05070A" font-size="120" font-family="Manrope, Arial, sans-serif" font-weight="800" letter-spacing="-4">MADCORE</text>
    <text x="330" y="584" fill="#2A3440" font-size="66" font-family="Manrope, Arial, sans-serif" font-weight="700" letter-spacing="18">GENA</text>
    <text x="330" y="648" fill="#445364" font-size="30" font-family="Manrope, Arial, sans-serif" font-weight="700" letter-spacing="8">SILVER CONTOUR</text>
  </g>

  <g opacity="0.84">
    <text x="330" y="736" fill="#394553" font-size="27" font-family="Manrope, Arial, sans-serif" font-weight="700" letter-spacing="6">1 FLACON</text>
    <text x="330" y="778" fill="#394553" font-size="27" font-family="Manrope, Arial, sans-serif" font-weight="700" letter-spacing="6">5 ML</text>
    <text x="330" y="860" fill="#394553" font-size="25" font-family="Manrope, Arial, sans-serif" font-weight="600" letter-spacing="4">SEPARATE TRAFFIC</text>
    <text x="330" y="896" fill="#394553" font-size="25" font-family="Manrope, Arial, sans-serif" font-weight="600" letter-spacing="4">SEPARATE ANALYTICS</text>
  </g>

  <g opacity="0.46">
    <rect x="690" y="690" width="10" height="162" rx="5" fill="#526173"/>
    <rect x="718" y="658" width="6" height="194" rx="3" fill="#526173"/>
    <rect x="748" y="630" width="4" height="222" rx="2" fill="#526173"/>
    <rect x="774" y="600" width="3" height="252" rx="1.5" fill="#526173"/>
  </g>

  <g opacity="0.52">
    <path d="M250 1038H850" stroke="#EDF3FB" stroke-opacity="0.16"/>
    <path d="M250 1080H850" stroke="#EDF3FB" stroke-opacity="0.16"/>
  </g>

  <g>
    <ellipse cx="548" cy="1148" rx="246" ry="84" fill="#C7D1DE" fill-opacity="0.18"/>
    <ellipse cx="548" cy="1148" rx="184" ry="56" fill="#0A0D12" fill-opacity="0.3"/>
  </g>

  <g transform="translate(278 980)">
    <rect x="0" y="0" width="174" height="232" rx="30" fill="url(#vialMetal)"/>
    <rect x="20" y="22" width="134" height="190" rx="22" fill="#0F141A" fill-opacity="0.18"/>
    <rect x="24" y="-20" width="126" height="52" rx="18" fill="#0C1117"/>
    <rect x="32" y="-34" width="110" height="40" rx="16" fill="url(#capMetal)"/>
    <path d="M46 84H66" stroke="#0E141B" stroke-opacity="0.5" stroke-width="6" stroke-linecap="round"/>
    <path d="M46 110H118" stroke="#0E141B" stroke-opacity="0.36" stroke-width="6" stroke-linecap="round"/>
    <path d="M46 136H106" stroke="#0E141B" stroke-opacity="0.36" stroke-width="6" stroke-linecap="round"/>
    <text x="44" y="188" fill="#4B5A6B" font-size="18" font-family="Manrope, Arial, sans-serif" font-weight="700" letter-spacing="3">GENA</text>
  </g>

  <g transform="translate(622 1004) rotate(14)">
    <rect x="0" y="0" width="158" height="214" rx="28" fill="url(#vialMetal)"/>
    <rect x="18" y="22" width="122" height="172" rx="20" fill="#0F141A" fill-opacity="0.16"/>
    <rect x="20" y="-18" width="118" height="46" rx="16" fill="#0C1117"/>
    <rect x="28" y="-32" width="102" height="34" rx="14" fill="url(#capMetal)"/>
    <path d="M40 82H112" stroke="#11161D" stroke-opacity="0.34" stroke-width="5" stroke-linecap="round"/>
    <path d="M40 110H96" stroke="#11161D" stroke-opacity="0.34" stroke-width="5" stroke-linecap="round"/>
    <text x="40" y="178" fill="#4B5A6B" font-size="17" font-family="Manrope, Arial, sans-serif" font-weight="700" letter-spacing="3">RF</text>
  </g>

  <g opacity="0.84">
    <rect x="220" y="218" width="188" height="42" rx="21" fill="#0E141B" fill-opacity="0.7" stroke="#EDF3FB" stroke-opacity="0.12"/>
    <text x="250" y="246" fill="#EDF3FB" font-size="20" font-family="Manrope, Arial, sans-serif" font-weight="700" letter-spacing="4">MADCORE GENA</text>
  </g>
</svg>
